<svg width="1404" height="709" viewBox="0 0 1404 709" fill="none" xmlns="http://www.w3.org/2000/svg">
<path d="M1436.47 0.853516C1436.61 1.68262 1436.61 2.66738 1436.47 3.77381V172.124C1016.33 170.56 158.439 173.297 146.452 173.297C128.09 173.297 128.09 182.5 128.09 200.865C128.09 274.378 127.498 444.046 127.498 457.185C127.498 511 140.749 520.531 174.882 520.531H557L551.58 609.686V692.975C397.584 695.321 74.9959 692.975 57.0151 692.975C22.6612 692.975 22.6612 678.5 22.6612 638.427C22.6612 607.926 17.5 124.013 17.5 83.5C17.5 34 53 39.5654 99.0676 39.5654H1281.29C1312.09 41.9116 1371.32 39.5654 1399.75 39.5654C1419.45 39.5654 1435.06 15.1912 1436.47 3.77381V0.853516Z" fill="#3C2061"/>
<rect x="1221" y="188" width="168" height="46" rx="23" transform="rotate(-90 1221 188)" fill="#FFE954"/>
<rect x="768" y="188" width="168" height="46" rx="23" transform="rotate(-90 768 188)" fill="#FFE954"/>
<rect x="310" y="188" width="168" height="46" rx="23" transform="rotate(-90 310 188)" fill="#FFE954"/>
<rect y="334" width="147" height="46" rx="23" fill="#FFE954"/>
<rect x="272" y="709" width="205" height="46" rx="23" transform="rotate(-90 272 709)" fill="#FFE954"/>
</svg>
