<svg width="1297" height="5285" viewBox="0 0 1297 5285" fill="none" xmlns="http://www.w3.org/2000/svg">
<path d="M215.515 67.1752C215.515 49.4546 214.528 -9.47838 215.515 -36.8271L136.205 -36.8271C136.402 26.3447 136.205 123.799 136.205 186.2C136.205 198.5 143.498 217.401 170.069 217.401C247.011 217.786 367.507 217.146 377.964 217.146C396.498 217.146 400.998 228.5 400.998 243.5C400.998 272.004 401.36 336.195 401.36 367.626C401.36 386.5 395.393 400.5 371.998 400.5C322.478 400.5 244.925 401.138 231.668 401.138C218.41 401.138 206.637 409.227 206.637 424.196C206.439 465.797 206.163 565.924 206.637 596.432C207.11 626.939 230.498 630.026 242.921 629.944C358.729 629.173 570.751 628.095 580.695 629.944C590.638 631.792 592.335 647.662 591.94 655.366C592.335 675.396 592.887 720.772 591.94 742.035C590.993 763.298 584.049 766.302 580.695 765.147C503.95 765.532 359.011 765.147 347.757 765.147C335.998 765.147 328.177 769.5 328.561 783.748C328.758 791.066 328.561 824.111 328.561 850C328.561 861 328.561 870.5 311.998 870.5C202.897 870.5 -14.7206 870.305 -24.1904 870.305C-33.6602 870.305 -38.3951 885.712 -39.5789 893.416C-39.1843 910.75 -38.6319 951.657 -39.5789 976.618C-40.5258 1001.58 -29.7145 1007.82 -24.1904 1007.82C54.1329 1007.43 206.511 1007.82 215.083 1007.82C234.748 1007.82 233.67 1013.5 233.498 1035C233.3 1059.65 233.862 1110 233.862 1126.84C233.862 1148.5 231.498 1154.5 214.998 1154.5C167.648 1154.5 76.6632 1153.42 65.7729 1153.42C55.9974 1153.42 50.2814 1160.5 50.3845 1170.87C50.7791 1210.54 50.3845 1300.39 50.3845 1324.45C50.3845 1351 63.9974 1360.32 84.1207 1360.32C225.971 1360.32 494.519 1359.35 507.304 1360.27C520.088 1361.2 522.495 1376.83 522.1 1384.54V1486.23C522.1 1505 514.998 1516.34 492.87 1516.34C425.792 1515.96 318.498 1516.5 309.998 1516.5C296.998 1516.5 281.803 1526.9 281.803 1548.01L281.803 1752.01C281.803 1825.5 295.614 1794.77 302.519 1793.61C394.06 1793.23 579.511 1792.69 588.981 1793.61C598.451 1794.54 601.607 1812.49 602.002 1821.35V1909.17C602.002 1940.38 591.346 1940.38 584.976 1940.37H584.838L90.6312 1940.37C80.8474 1940.37 77.6102 1946.5 77.6102 1953.9C77.4129 1968.15 77.6102 2009.33 77.6102 2031.66C77.6102 2054 72.998 2057.72 56.9407 2057.72C19.0339 2057.72 -24.1904 2059.17 -38.3951 2058.24C-52.5999 2057.32 -55.3619 2072.49 -54.9673 2080.2L-54.9673 2216.56C-54.9673 2240.59 -43.9192 2248.14 -38.3951 2248.91C142.518 2248.91 364.949 2247 372.998 2247H373.908C410.578 2247 445.498 2246.99 445.498 2306.5L570.633 2320.56V2220.02C570.633 2195.5 560.998 2186.51 530.998 2186.51L-12.945 2186.51C-15.5098 2184.59 -20.6393 2177.5 -20.6393 2164.56C-20.6393 2151.61 -12.7477 2146.84 -8.80194 2146.07C27.1045 2146.07 98.998 2145.5 109.498 2145.5C119.998 2145.5 127.919 2138.5 127.919 2128.73L127.919 2127.57C127.924 2121.53 127.937 2102.16 127.498 2073C127.137 2049 131.998 2046.69 150.41 2046.69C304.887 2046.69 610.925 2048.42 627.497 2047.5C651.998 2046.13 654.679 2023 654.678 2012.02L654.678 1740.46C654.678 1709.95 638.497 1705.79 623.174 1705.79C536.565 1705.79 371.767 1706.95 359.93 1706.95C342.174 1706.95 342.174 1689 342.174 1681.52L342.174 1630.68C342.174 1606 342.174 1593.7 359.93 1593.7C413 1594.08 512.401 1593.7 528.999 1593.7C554.497 1593.7 559.388 1583.5 559.388 1555.56C559.19 1496.24 558.914 1370.9 559.388 1344.09C559.861 1317.28 546.564 1307.5 539.856 1305.96C400.373 1306.34 117.887 1305.96 103.652 1305.96C84.1207 1305.96 84.1207 1300.5 84.1207 1280.54L84.1207 1236.62C84.1207 1210.49 84.1207 1204.27 103.652 1204.27C145.874 1204.27 227.498 1203.5 246.498 1203.5C265.498 1203.5 267.998 1196 267.998 1179C267.998 1130.47 267.125 1023.07 267.599 996.263C268.072 969.453 249.998 966.218 243.514 966.218L-1.69965 966.218C-6.43457 966.218 -12.3532 958.129 -12.3532 939.639C-12.3532 924.848 -2.0943 921.15 3.03522 921.15C115.687 921.535 339.286 921.995 356.642 921.15C373.998 920.305 369.672 921.15 369.672 855.892C369.672 837 376.498 835.73 391.89 835.637C455.417 835.252 586.732 834.713 603.777 835.637C620.823 836.561 628.241 808.288 629.819 794.036L629.819 596.432C629.819 554.831 606.145 551.364 603.777 551.364L262.864 551.364C249.498 551.364 248.067 542.5 248.067 532.707L248.067 478.562C248.067 458 252.498 455.451 268.782 455.451L433.998 455.451C465.498 455.451 468.998 443.5 468.998 418L468.998 134.5C468.998 111 458.998 97.2203 429.498 97.2203L248.498 97.2203C227.498 97.2203 215.515 94 215.515 67.1752Z" fill="#DBA0FF"/>
<path d="M571.645 2392.05C571.645 2364.48 568.84 2277.45 570.46 2236.62H445.029C445.029 2322 445.806 2529.54 445.029 2569.57C444.251 2609.59 479.382 2616.07 495.998 2616.15C622.373 2616.72 822.332 2617.5 839.498 2617.5C869.498 2617.5 880.536 2629.5 880.536 2654.1C880.536 2696.65 880.998 2816.08 880.998 2863C880.998 2879.5 873.998 2890.44 855.261 2890.44C773.928 2890.44 616.773 2892.5 594.998 2892.5C576.955 2892.5 559.498 2902.5 559.498 2925C559.174 2987.1 560.71 3136.44 560.71 3181.99C560.71 3211.5 560.71 3244.3 605.428 3244.3L1172.23 3244.3C1193.56 3244.3 1193.32 3259 1193.56 3269.97C1194.21 3299.87 1193.56 3369 1193.56 3399.35C1193.56 3422.5 1195 3432.58 1172.23 3432.58C1046.18 3432.58 788.87 3433.17 774.802 3433.17C768.998 3433.17 761.998 3438.13 761.998 3449.5C761.998 3460.87 761.744 3509.07 760.966 3547.71C760.188 3586.36 745.736 3592.57 738.607 3590.84L181.586 3590.84C166.498 3590.84 155.998 3597.65 155.998 3618C155.998 3643.89 155.498 3723.44 155.498 3760C155.498 3782.5 157.498 3796.24 181.586 3796.13C310.229 3795.56 570.947 3796.13 585.013 3796.13C605.428 3796.13 606.998 3802 606.998 3824C606.998 3860.8 604.65 3947.6 605.428 3973.82C606.205 4000.04 592.142 4011.2 585.013 4013.5H329.347C311.46 4013.5 305.044 4035.35 304.072 4046.28C304.72 4105.51 304.072 4232.9 304.072 4268.82C304.072 4303 301.498 4322.3 329.347 4322.3C562.331 4321.72 1033.5 4322.3 1054.54 4322.3C1078.85 4322.3 1078.85 4335 1078.85 4358.53V4510.34C1078.85 4547.6 1062.65 4556.92 1054.54 4556.92C944.372 4556.34 720.332 4555.54 705.556 4556.92C690.779 4558.3 685.141 4583.94 684.169 4596.59C684.169 4680 687.498 4879 687.498 4916C687.498 4953 698.498 4968 730.498 4968C880.853 4968 1160.88 4968.5 1176.5 4968.5C1213.5 4968.5 1210.08 4995.5 1210.08 5010.62V5141.73C1210.08 5188.32 1191.46 5188.32 1182.09 5188.31H1181.89C917.152 5188.31 384.001 5185.72 370.176 5188.31C354.445 5191.27 350.085 5211.31 348.789 5222.82C348.465 5244.09 348.012 5294.24 348.789 5324.6C349.567 5354.96 335.504 5363.7 328.375 5364.28C281.389 5364.85 181.586 5365.66 158.255 5364.28C134.924 5362.9 130.388 5385.55 131.036 5397.05V5600.62C131.036 5636.5 149.182 5647.77 158.255 5648.92H1066.21C1079.43 5648.92 1082.74 5668.47 1082.74 5678.25L1082.74 5755.88H1158.56L1158.56 5605.79C1158.56 5565.77 1140.41 5555.77 1131.34 5555.77H200.056C195.843 5552.89 187.418 5542.31 187.418 5522.99C187.418 5503.67 200.38 5496.54 206.861 5495.39H408.088C427.531 5495.39 431.743 5478.13 431.419 5469.51C431.743 5464.91 432.197 5443.98 431.419 5397.05C430.641 5350.13 455.722 5344.15 468.359 5347.02C722.081 5347.6 1236.33 5348.4 1263.55 5347.02C1290.77 5345.64 1296.93 5311.95 1296.6 5295.27L1296.6 4889.87C1296.6 4844.32 1251.6 4839.11 1241.53 4839.11C1099.28 4839.11 831.93 4839.84 812.488 4839.84C796.498 4839.84 783.325 4826.5 783.325 4801.88V4725.98C783.325 4683.2 779.296 4660.79 789.017 4660.22C876.183 4660.79 1080.79 4658.66 1108.01 4657.28C1135.23 4655.9 1140.74 4632.25 1140.09 4613.84C1139.77 4525.29 1139.31 4338.17 1140.09 4298.15C1140.87 4258.12 1130.5 4222.39 1085.5 4222.5C856.403 4223.08 405.476 4221.48 382.111 4221.48C359.483 4221.48 360.788 4206.24 360.788 4193.91C360.788 4186.29 360.26 4143.95 359.483 4109.45C358.705 4074.95 380.545 4091.13 391.562 4089.41C460.907 4089.98 606.4 4090.79 633.619 4089.41C660.838 4088.03 663.107 4060.08 660.838 4046.28C660.514 3973.82 660.061 3818.91 660.838 3778.88C661.616 3738.86 631.998 3735.24 620.805 3735.24C485.033 3735.24 225.72 3734 219.498 3734C198.998 3734 201.028 3726.5 201.028 3694.35C201.028 3669.5 207.498 3666.69 226.303 3666.75C411.329 3667.32 785.602 3666.75 802.767 3666.75C825.498 3666.75 830.958 3620.17 831.93 3580.49C832.708 3548.75 854.289 3539.66 864.982 3539.09C969.323 3538.51 1184.08 3541.09 1213 3539.09C1240.96 3537.15 1255.77 3525.25 1255.77 3476.98L1255.77 3181.99C1255.77 3119.88 1216.89 3114.71 1213 3114.71C1209.11 3114.71 662.782 3111.26 653.061 3114.71C643.34 3118.16 628.758 3076.75 628.758 3068.13L628.758 3006.02C628.758 2985.32 650.145 2971.52 662.782 2971.52C754.809 2971.52 933.826 2969.8 952.49 2969.8C983.998 2969.8 993.866 2941 993.998 2922.5C994.97 2786.79 991.357 2492 991.357 2476.41C991.357 2450 973.498 2436.73 946.64 2436.73L605.428 2436.73C571.645 2436.73 571.645 2418.45 571.645 2392.05Z" fill="#DBA0FF"/>
</svg>
