<svg width="819" height="441" viewBox="0 0 819 441" fill="none" xmlns="http://www.w3.org/2000/svg">
<path d="M243.178 24H37.0474C37.0474 97.7023 36.0004 219.957 36.0004 235.473C36.0004 254.868 35.9999 228.021 36 288.931C36.0001 349.842 79.5025 349.842 102.204 349.842C118.315 349.842 437.575 350.106 610.535 350.106H648.537C687.426 350.106 687.426 363.884 687.426 407.381V441H818.924C819.319 381.09 818.048 264.417 818.048 253.66C818.048 228.308 806.047 207.609 773.545 207.609C768.823 207.609 757.129 207.543 748.544 207.609C580.716 208.902 302.488 207.874 286.015 206.815C243.178 204.059 243.178 182.565 243.178 142.312V24Z" fill="#3C2061"/>
<path d="M0 29.5C0 13.2076 13.2076 0 29.5 0H246.5C262.792 0 276 13.2076 276 29.5C276 45.7924 262.792 59 246.5 59H29.5C13.2076 59 0 45.7924 0 29.5Z" fill="#FFE954"/>
</svg>
