<svg width="1046" height="537" viewBox="0 0 1046 537" fill="none" xmlns="http://www.w3.org/2000/svg">
<path d="M133.378 55.8994H20.8418V284.651C20.8418 342.133 64 342.133 102.578 342.133H761.21C788.455 342.133 788.455 355.5 788.455 373.806V497C788.455 524.5 799.5 536.865 839.393 536.865H1045.51V414.864H1005.5H955C918.76 414.864 918.76 394.335 918.76 373.806V280V230C918.76 187.5 896.5 182.593 857.5 182.593H812H254.206C223.801 183.375 161.599 182.593 154.7 182.593C136 182.593 133.378 172 133.378 148V55.8994Z" fill="#3C2061"/>
<rect width="150" height="56" rx="28" fill="#FFE954"/>
<rect x="245" y="361" width="201" height="53" rx="26.5" transform="rotate(-90 245 361)" fill="#FFE954"/>
<rect x="644" y="361" width="201" height="53" rx="26.5" transform="rotate(-90 644 361)" fill="#FFE954"/>
</svg>
