<svg width="382" height="645" viewBox="0 0 382 645" fill="none" xmlns="http://www.w3.org/2000/svg">
<path d="M121.5 18.2909H306.277C309.262 18.2907 331.043 18.2901 349.596 18.29C361.233 18.29 371.807 28.2607 375.657 35.8858C379.507 43.5109 381.58 51.6313 381.58 59.3478V579.612C381.58 600.5 374.331 614.461 369 621.5C363.669 628.538 347.673 641.5 313 641.5H10.9266C9.54152 647.341 7.30777 641.68 6.11126 641.5H6C6.03599 641.494 6.0731 641.494 6.11126 641.5H10.9266C10.9513 641.395 10.9758 641.287 11 641.175C12.7769 632.964 11 466.972 11 462.279C11 458.525 1.77688 446.65 0 444.5C42.6452 445.477 101.215 444.5 149.5 444.5C175.5 444.5 180.216 439.383 188.5 432C196.784 424.616 196.784 404.93 196.784 398.37V243.523V208C196.784 191.321 184.963 191.321 180.5 191.321C172 191.321 127.423 191.907 121.5 191.321C117.693 190.943 123.538 191.046 124.958 191.202C123.222 185.994 123.137 146.358 121.5 142C97.7456 78.7565 104.592 41.7515 104 35.8858L121.5 18.2909Z" fill="#3C2061"/>
<rect x="89" y="205" width="205" height="46" rx="23" transform="rotate(-90 89 205)" fill="#FFE954"/>
</svg>
