<svg width="540" height="570" viewBox="0 0 540 570" fill="none" xmlns="http://www.w3.org/2000/svg">
<path d="M67.8327 19.4043H564.175V108.559H153.124C135 108.559 127.053 110.79 123.5 120.5C119.947 130.21 121.14 149.617 121.14 164.867V332.619V408C121.14 440.543 121.14 440.543 160.231 440.543H564.175V554.332C401.492 555.114 72.5 554.332 59.5411 554.332C34.5 554.332 19 534.5 19.0006 514.5C19.0011 498.46 19.0004 466.312 19.0001 452.685L19 446.5C19 428.904 21.5 78.5777 21.5 66.5C21.5 35 38.5 19.4043 67.8327 19.4043Z" fill="#3C2061"/>
<rect x="241" y="122" width="122" height="46" rx="23" transform="rotate(-90 241 122)" fill="#FFE954"/>
<rect x="247" y="570" width="148" height="46" rx="23" transform="rotate(-90 247 570)" fill="#FFE954"/>
<rect y="257" width="148" height="46" rx="23" fill="#FFE954"/>
<rect x="447" y="570" width="148" height="46" rx="23" transform="rotate(-90 447 570)" fill="#FFE954"/>
</svg>
