<svg width="1019" height="650" viewBox="0 0 1019 650" fill="none" xmlns="http://www.w3.org/2000/svg">
<path d="M763.185 168.503V37L878 52L994.18 37V327.5C993.39 346.66 994.18 319.5 994.18 374C994.18 428.5 947 463 892 463C868.757 463 749.581 461.647 826.6 462.869C829.423 462.912 832.223 462.955 835 463C831.973 462.953 829.177 462.909 826.6 462.869C606.292 459.506 250.772 460.5 233 460.5C215 460.5 206 471.5 206 491C206 498.508 206.429 597.853 206.429 649.469H0.902344C1.29721 530.987 3.44767 290.446 2.5 282C2.5 206 54 197.83 88 197.83H136.5C143.502 196.624 714.345 197.5 733 197.5C754.5 197.5 763.185 186 763.185 168.503Z" fill="#3C2061"/>
<rect x="743" width="276" height="59" rx="29.5" fill="#FFE954"/>
</svg>
