<svg width="767" height="788" viewBox="0 0 767 788" fill="none" xmlns="http://www.w3.org/2000/svg">
<path d="M82.1825 16.8809H738V211.613H212.487C183.5 211.613 176.949 225.691 176.949 251.498V497.847C176.949 520 174.001 544.77 212.487 544.77H378.5V786.426C289.261 787.99 79.3964 786.426 65.5977 786.426C34.0009 786.426 20.501 767.42 20.501 745.5C20.501 736.115 20.5839 707.438 20.5839 690.233V321.884C17.0007 65.5 14.0504 59.5 25.0007 42.5C34.0185 28.5 46.5011 16.8809 82.1825 16.8809Z" fill="#3C2061"/>
<rect x="721" y="235" width="235" height="46" rx="23" transform="rotate(-90 721 235)" fill="#FFE954"/>
<rect x="294" y="235" width="235" height="46" rx="23" transform="rotate(-90 294 235)" fill="#FFE954"/>
<rect y="364" width="197" height="46" rx="23" fill="#FFE954"/>
</svg>
