<svg width="1297" height="5285" viewBox="0 0 1297 5285" fill="none" xmlns="http://www.w3.org/2000/svg">
<path d="M215.517 67.1752C215.517 49.4546 214.53 -9.47838 215.517 -36.8271L136.207 -36.8271C136.404 26.3447 136.207 123.799 136.207 186.2C136.207 198.5 143.5 217.401 170.071 217.401C247.013 217.786 367.509 217.146 377.966 217.146C396.5 217.146 400.999 228.5 400.999 243.5C400.999 272.004 401.362 336.195 401.362 367.626C401.362 386.5 395.395 400.5 372 400.5C322.48 400.5 244.927 401.138 231.67 401.138C218.412 401.138 206.639 409.227 206.639 424.196C206.441 465.797 206.165 565.924 206.639 596.432C207.112 626.939 230.5 630.026 242.923 629.944C358.731 629.173 570.753 628.095 580.697 629.944C590.64 631.792 592.337 647.662 591.942 655.366C592.337 675.396 592.889 720.772 591.942 742.035C590.995 763.298 584.051 766.302 580.697 765.147C503.952 765.532 359.013 765.147 347.759 765.147C336 765.147 328.179 769.5 328.563 783.748C328.76 791.066 328.563 824.111 328.563 850C328.563 861 328.563 870.5 312 870.5C202.899 870.5 -14.7187 870.305 -24.1885 870.305C-33.6583 870.305 -38.3931 885.712 -39.5769 893.416C-39.1823 910.75 -38.6299 951.657 -39.5769 976.618C-40.5239 1001.58 -29.7125 1007.82 -24.1885 1007.82C54.1349 1007.43 206.513 1007.82 215.085 1007.82C234.75 1007.82 233.672 1013.5 233.5 1035C233.302 1059.65 233.864 1110 233.864 1126.84C233.864 1148.5 231.5 1154.5 215 1154.5C167.65 1154.5 76.6652 1153.42 65.7748 1153.42C55.9994 1153.42 50.2833 1160.5 50.3864 1170.87C50.781 1210.54 50.3864 1300.39 50.3864 1324.45C50.3864 1351 63.9994 1360.32 84.1226 1360.32C225.973 1360.32 494.521 1359.35 507.306 1360.27C520.09 1361.2 522.497 1376.83 522.102 1384.54V1486.23C522.102 1505 514.999 1516.34 492.871 1516.34C425.794 1515.96 318.5 1516.5 310 1516.5C297 1516.5 281.805 1526.9 281.805 1548.01L281.805 1752.01C281.805 1825.5 295.616 1794.77 302.521 1793.61C394.062 1793.23 579.513 1792.69 588.983 1793.61C598.453 1794.54 601.609 1812.49 602.004 1821.35V1909.17C602.004 1940.38 591.348 1940.38 584.978 1940.37H584.84L90.6331 1940.37C80.8494 1940.37 77.6121 1946.5 77.6121 1953.9C77.4149 1968.15 77.6121 2009.33 77.6121 2031.66C77.6121 2054 73 2057.72 56.9427 2057.72C19.0358 2057.72 -24.1885 2059.17 -38.3932 2058.24C-52.5979 2057.32 -55.36 2072.49 -54.9654 2080.2L-54.9654 2216.56C-54.9654 2240.59 -43.9172 2248.14 -38.3932 2248.91C142.52 2248.91 364.951 2247 373 2247H373.91C410.58 2247 445.5 2246.99 445.5 2306.5L570.635 2320.56V2220.02C570.635 2195.5 561 2186.51 531 2186.51L-12.9431 2186.51C-15.5078 2184.59 -20.6373 2177.5 -20.6373 2164.56C-20.6373 2151.61 -12.7457 2146.84 -8.79999 2146.07C27.1064 2146.07 99 2145.5 109.5 2145.5C120 2145.5 127.921 2138.5 127.921 2128.73L127.921 2127.57C127.925 2121.53 127.939 2102.16 127.5 2073C127.138 2049 132 2046.69 150.412 2046.69C304.889 2046.69 610.927 2048.42 627.499 2047.5C652 2046.13 654.68 2023 654.68 2012.02L654.68 1740.46C654.68 1709.95 638.499 1705.79 623.176 1705.79C536.567 1705.79 371.769 1706.95 359.931 1706.95C342.176 1706.95 342.176 1689 342.176 1681.52L342.176 1630.68C342.176 1606 342.176 1593.7 359.931 1593.7C413.002 1594.08 512.403 1593.7 529.001 1593.7C554.499 1593.7 559.39 1583.5 559.39 1555.56C559.192 1496.24 558.916 1370.9 559.39 1344.09C559.863 1317.28 546.566 1307.5 539.858 1305.96C400.375 1306.34 117.889 1305.96 103.654 1305.96C84.1226 1305.96 84.1226 1300.5 84.1226 1280.54L84.1226 1236.62C84.1226 1210.49 84.1226 1204.27 103.654 1204.27C145.876 1204.27 227.5 1203.5 246.5 1203.5C265.5 1203.5 268 1196 268 1179C268 1130.47 267.127 1023.07 267.601 996.263C268.074 969.453 250 966.218 243.516 966.218L-1.69769 966.218C-6.43262 966.218 -12.3513 958.129 -12.3513 939.639C-12.3513 924.848 -2.09235 921.15 3.03717 921.15C115.689 921.535 339.288 921.995 356.644 921.15C374 920.305 369.674 921.15 369.674 855.892C369.674 837 376.5 835.73 391.892 835.637C455.419 835.252 586.734 834.713 603.779 835.637C620.825 836.561 628.243 808.288 629.821 794.036L629.821 596.432C629.821 554.831 606.147 551.364 603.779 551.364L262.866 551.364C249.5 551.364 248.069 542.5 248.069 532.707L248.069 478.562C248.069 458 252.5 455.451 268.784 455.451L433.999 455.451C465.499 455.451 468.999 443.5 468.999 418L468.999 134.5C468.999 111 458.999 97.2203 429.499 97.2203L248.5 97.2203C227.5 97.2203 215.517 94 215.517 67.1752Z" fill="#99E7FF"/>
<path d="M571.648 2392.05C571.648 2364.48 568.843 2277.45 570.463 2236.62H445.032C445.032 2322 445.809 2529.54 445.032 2569.57C444.254 2609.59 479.385 2616.07 496.001 2616.15C622.376 2616.72 822.335 2617.5 839.501 2617.5C869.501 2617.5 880.539 2629.5 880.539 2654.1C880.539 2696.65 881.001 2816.08 881.001 2863C881.001 2879.5 874.001 2890.44 855.264 2890.44C773.931 2890.44 616.776 2892.5 595.001 2892.5C576.958 2892.5 559.501 2902.5 559.501 2925C559.177 2987.1 560.713 3136.44 560.713 3181.99C560.713 3211.5 560.713 3244.3 605.431 3244.3L1172.23 3244.3C1193.56 3244.3 1193.32 3259 1193.56 3269.97C1194.21 3299.87 1193.56 3369 1193.56 3399.35C1193.56 3422.5 1195 3432.58 1172.23 3432.58C1046.18 3432.58 788.873 3433.17 774.805 3433.17C769.001 3433.17 762.001 3438.13 762.001 3449.5C762.001 3460.87 761.747 3509.07 760.969 3547.71C760.191 3586.36 745.739 3592.57 738.61 3590.84L181.589 3590.84C166.501 3590.84 156.001 3597.65 156.001 3618C156.001 3643.89 155.501 3723.44 155.501 3760C155.501 3782.5 157.501 3796.24 181.589 3796.13C310.232 3795.56 570.95 3796.13 585.016 3796.13C605.431 3796.13 607.001 3802 607.001 3824C607.001 3860.8 604.653 3947.6 605.431 3973.82C606.208 4000.04 592.145 4011.2 585.016 4013.5H329.35C311.463 4013.5 305.047 4035.35 304.075 4046.28C304.723 4105.51 304.075 4232.9 304.075 4268.82C304.075 4303 301.501 4322.3 329.35 4322.3C562.334 4321.72 1033.5 4322.3 1054.55 4322.3C1078.85 4322.3 1078.85 4335 1078.85 4358.53V4510.34C1078.85 4547.6 1062.65 4556.92 1054.55 4556.92C944.375 4556.34 720.335 4555.54 705.558 4556.92C690.782 4558.3 685.144 4583.94 684.172 4596.59C684.172 4680 687.501 4879 687.501 4916C687.501 4953 698.501 4968 730.501 4968C880.856 4968 1160.89 4968.5 1176.5 4968.5C1213.5 4968.5 1210.09 4995.5 1210.09 5010.62V5141.73C1210.09 5188.32 1191.46 5188.32 1182.1 5188.31H1181.89C917.155 5188.31 384.004 5185.72 370.179 5188.31C354.448 5191.27 350.088 5211.31 348.792 5222.82C348.468 5244.09 348.015 5294.24 348.792 5324.6C349.57 5354.96 335.507 5363.7 328.378 5364.28C281.392 5364.85 181.589 5365.66 158.258 5364.28C134.927 5362.9 130.391 5385.55 131.039 5397.05V5600.62C131.039 5636.5 149.185 5647.77 158.258 5648.92H1066.21C1079.43 5648.92 1082.74 5668.47 1082.74 5678.25L1082.74 5755.88H1158.56L1158.56 5605.79C1158.56 5565.77 1140.42 5555.77 1131.34 5555.77H200.059C195.846 5552.89 187.421 5542.31 187.421 5522.99C187.421 5503.67 200.383 5496.54 206.864 5495.39H408.091C427.534 5495.39 431.746 5478.13 431.422 5469.51C431.746 5464.91 432.2 5443.98 431.422 5397.05C430.644 5350.13 455.725 5344.15 468.362 5347.02C722.084 5347.6 1236.33 5348.4 1263.55 5347.02C1290.77 5345.64 1296.93 5311.95 1296.6 5295.27L1296.6 4889.87C1296.6 4844.32 1251.6 4839.11 1241.53 4839.11C1099.28 4839.11 831.933 4839.84 812.491 4839.84C796.501 4839.84 783.328 4826.5 783.328 4801.88V4725.98C783.328 4683.2 779.299 4660.79 789.02 4660.22C876.186 4660.79 1080.79 4658.66 1108.01 4657.28C1135.23 4655.9 1140.74 4632.25 1140.09 4613.84C1139.77 4525.29 1139.32 4338.17 1140.09 4298.15C1140.87 4258.12 1130.5 4222.39 1085.5 4222.5C856.406 4223.08 405.479 4221.48 382.114 4221.48C359.486 4221.48 360.791 4206.24 360.791 4193.91C360.791 4186.29 360.263 4143.95 359.486 4109.45C358.708 4074.95 380.548 4091.13 391.565 4089.41C460.91 4089.98 606.403 4090.79 633.622 4089.41C660.841 4088.03 663.109 4060.08 660.841 4046.28C660.517 3973.82 660.063 3818.91 660.841 3778.88C661.619 3738.86 632.001 3735.24 620.808 3735.24C485.036 3735.24 225.723 3734 219.501 3734C199.001 3734 201.031 3726.5 201.031 3694.35C201.031 3669.5 207.501 3666.69 226.306 3666.75C411.332 3667.32 785.605 3666.75 802.77 3666.75C825.501 3666.75 830.961 3620.17 831.933 3580.49C832.711 3548.75 854.292 3539.66 864.985 3539.09C969.326 3538.51 1184.08 3541.09 1213 3539.09C1240.97 3537.15 1255.78 3525.25 1255.78 3476.98L1255.78 3181.99C1255.78 3119.88 1216.89 3114.71 1213 3114.71C1209.11 3114.71 662.785 3111.26 653.064 3114.71C643.343 3118.16 628.761 3076.75 628.761 3068.13L628.761 3006.02C628.761 2985.32 650.148 2971.52 662.785 2971.52C754.812 2971.52 933.829 2969.8 952.493 2969.8C984.001 2969.8 993.868 2941 994.001 2922.5C994.973 2786.79 991.36 2492 991.36 2476.41C991.36 2450 973.501 2436.73 946.643 2436.73L605.431 2436.73C571.648 2436.73 571.648 2418.45 571.648 2392.05Z" fill="#99E7FF"/>
</svg>
