<svg width="1280" height="437" viewBox="0 0 1280 437" fill="none" xmlns="http://www.w3.org/2000/svg">
<path d="M1125.57 101.5V49.8184H1253.51V167.5V237C1253.51 266.5 1253.51 305.551 1184.8 305.551H147.1C125.257 305.551 107.416 315.5 107.416 341.5V436.351H0.210938V211.704C0.210938 197.627 4.12008 168.535 17.3875 155.396C33.9717 138.973 49.9637 133.108 83.1322 133.108H809.285H1087.66C1121.5 133.108 1125.57 120 1125.57 101.5Z" fill="#3C2061"/>
<path d="M1103 29.5C1103 13.2076 1116.21 0 1132.5 0H1250.5C1266.79 0 1280 13.2076 1280 29.5C1280 45.7924 1266.79 59 1250.5 59H1132.5C1116.21 59 1103 45.7924 1103 29.5Z" fill="#FFE954"/>
<rect x="740" y="331" width="228" height="60" rx="30" transform="rotate(-90 740 331)" fill="#FFE954"/>
<rect x="336" y="331" width="228" height="60" rx="30" transform="rotate(-90 336 331)" fill="#FFE954"/>
</svg>
