<svg width="1706" height="3906" viewBox="0 0 1706 3906" fill="none" xmlns="http://www.w3.org/2000/svg">
<path d="M232.5 1902L-26.5909 1902C-26.418 1957.34 -26.176 1956.47 -26.5909 1979.95C-27.0059 2003.44 -12.0171 2007.24 -1.65121 2007.29C65.7791 2007.63 174.547 2007.56 183.712 2007.56C196.213 2007.56 205.784 2011.03 205.784 2029.56C205.784 2054.54 205.901 2118.09 205.901 2145.63C205.901 2164.37 202.464 2168.12 180.587 2168.12H57.1412C41.8277 2168.12 34.9522 2172.18 34.9522 2191.55C34.7793 2228 34.7187 2312.63 35.1336 2339.36C35.5486 2366.08 41.5152 2369.05 66.8375 2369.05C168.331 2369.05 336.552 2368.5 344.5 2368.5C372.804 2368.5 372.804 2378.5 372.804 2390.99C373.149 2408.54 372.804 2448.27 372.804 2466.92C372.804 2479 370.5 2487 354 2487C286.742 2487 166.832 2488 159.648 2488C146.522 2488 141.985 2493.31 141.985 2506.4C142.158 2512.82 142.4 2543.88 141.985 2566.56C141.81 2576.09 140.584 2579.3 130.055 2579.3H-167.157C-180.643 2579.3 -180.643 2586.4 -180.643 2599.54C-180.643 2614.51 -181 2661.06 -181 2682.3C-181 2695.42 -180.062 2699.77 -167.157 2699.77H48.101C58.9936 2699.77 59.1381 2701.98 58.9936 2720.02C58.8207 2741.62 58.2889 2797.48 58.7039 2812.87C58.9144 2820.68 58.7038 2827.33 48.101 2827.33H-88.3156C-99.1194 2827.33 -101.932 2833.18 -101.932 2842.55C-101.586 2877.31 -101.832 2850.95 -101.832 2871.88C-64.8322 2872.22 59.5123 2872.69 74.0357 2871.88C88.5591 2871.07 88.5923 2854.73 88.5591 2846.57C88.3862 2804.05 88.1442 2713.14 88.5591 2689.65C88.9741 2666.16 88.5591 2663.33 74.0357 2663.33H-147.447C-157.561 2663.33 -156.783 2660.43 -156.783 2640.04C-156.783 2627.08 -158.186 2623.84 -143.297 2623.84C-44.5724 2624.18 144.22 2622.95 166.524 2622.95C182 2622.95 179.759 2616.07 180.862 2566.56C181.24 2549.59 185.588 2548.92 197.485 2548.92C253.159 2548.92 368.239 2548.11 383.177 2548.92C398.116 2549.73 404.617 2524.96 406 2512.48L406 2339.36C406 2302.91 388.5 2299.5 372.804 2299.5C347.126 2299.5 89.9854 2299.87 84.4096 2299.87C71.4423 2299.87 71.4423 2287.83 71.4423 2282.77V2236.09C71.4423 2219.04 73.3923 2215.84 89.5965 2215.84H239C264.915 2215.84 264.915 2200 264.915 2175.35C265.434 2095.71 264.915 1934.28 264.915 1925.29C264.915 1907 259 1902 232.5 1902Z" fill="#DBA0FF"/>
<path d="M1389.24 145.905C1389.24 119 1387.85 38.4136 1389.24 0.0625L1278.04 0.0625C1278.31 88.6482 1278.7 275.218 1278.04 312.813C1277.37 350.408 1301.35 356.483 1317.94 356.566C1425.82 357.106 1599.84 357 1614.5 357C1634.5 357 1649.81 362.547 1649.81 392.216C1649.81 432.188 1650 533.923 1650 578C1650 608 1644.5 614 1609.5 614L1412 614C1387.5 614 1376.5 620.5 1376.5 651.5C1376.22 709.837 1376.13 845.3 1376.79 888.081C1377.45 930.861 1387 935.6 1427.51 935.6C1589.89 935.6 1887.32 932.481 1901.26 935.074C1915.2 937.667 1917.58 959.921 1917.03 970.724C1917.58 998.813 1918.35 1062.44 1917.03 1092.26C1915.7 1122.08 1905.96 1126.29 1901.26 1124.67C1793.65 1125.21 1587.49 1126 1576 1126C1555 1126 1547.74 1134.5 1547.74 1155.46C1548.02 1165.72 1548.4 1215.45 1547.74 1251.75C1547.46 1267 1545.5 1272.13 1528.65 1272.13L1053.15 1272.13C1031.57 1272.13 1031.57 1283.49 1031.57 1304.54C1031.57 1328.5 1031 1403 1031 1437C1031 1458 1032.5 1464.97 1053.15 1464.97L1397.54 1464.97C1414.96 1464.97 1415.19 1468.5 1414.96 1497.38C1414.69 1531.95 1413.84 1621.37 1414.5 1646C1414.84 1658.5 1414.5 1669.15 1397.54 1669.15L1179.28 1669.15C1162 1669.15 1157.5 1678.5 1157.5 1693.5C1158.05 1749.14 1157 1877 1157 1910.5C1157 1946.5 1157 1959.21 1179.28 1959.21C1378.17 1959.21 1780.43 1957.92 1798.36 1959.21C1816.28 1960.51 1819.66 1982.44 1819.1 1993.24L1819.1 2135.84C1819.1 2170.85 1805.27 2179.6 1798.36 2179.6C1704.31 2179.06 1513.05 2178.3 1500.44 2179.6C1487.82 2180.89 1483.01 2204.98 1482.18 2216.87L1482.18 2508.55C1482.18 2559.11 1501.55 2568.51 1511.23 2566.89C1639.58 2566.35 1899.6 2565.59 1912.88 2566.89C1926.15 2568.18 1930.58 2593.36 1931.13 2605.78V2728.94C1931.13 2773.01 1915.09 2776.47 1907.07 2772.69C1681.07 2772.69 1225.94 2770.25 1214.14 2772.69C1200.71 2775.46 1196.99 2794.29 1195.88 2805.1C1195.61 2825.08 1197.43 2876.92 1198.09 2905.44C1198.32 2915.06 1198.37 2926.17 1198.35 2935.32C1198.18 2936.89 1198.1 2938.61 1198.09 2940.5C1197.97 2963.73 1198.3 2953.3 1198.35 2935.32C1200.65 2913.25 1219.69 2921.77 1297.95 2921.77C1514.55 2921.77 1953.54 2923.07 1976.77 2921.77C2000.01 2920.47 2005.27 2888.82 2004.99 2873.16L2004.99 2492.35C2004.99 2449.57 1986.18 2443.19 1976.77 2445.35H1591.72C1566.83 2445.35 1566.83 2445.35 1566.83 2409.7V2338.4C1566.83 2286.55 1566.83 2286.37 1591.72 2286.55C1666.13 2287.09 1820.76 2287.84 1844 2286.55C1867.23 2285.25 1871.94 2250.36 1871.38 2233.07C1871.11 2149.89 1870.72 1974.12 1871.38 1936.53C1872.05 1898.93 1853.4 1885.21 1844 1883.05C1648.43 1883.59 1252.31 1884.35 1232.4 1883.05C1212.48 1881.75 1205.84 1858.74 1205.01 1847.4C1205.29 1840.38 1205.67 1818.23 1205.01 1785.82C1204.35 1753.41 1222.99 1742.07 1232.4 1740.45C1291.59 1740.99 1415.79 1741.74 1439.03 1740.45C1462.27 1739.15 1462.32 1713 1462.27 1699.94C1461.99 1631.88 1461.6 1486.36 1462.27 1448.76C1462.93 1411.17 1462.27 1406.63 1439.03 1406.63L1084.68 1406.63C1068.5 1406.63 1069.74 1402 1069.74 1369.36C1069.74 1348.62 1067.5 1343.43 1091.32 1343.43C1249.27 1343.97 1551.32 1342 1587 1342C1609.94 1342 1608.18 1331 1609.94 1251.75C1610.54 1224.58 1617.5 1223.52 1636.53 1223.52C1725.61 1223.52 1909.72 1222.22 1933.62 1223.52C1957.52 1224.81 1967.92 1185.17 1970.14 1165.18V888.081C1970.14 829.744 1936.94 824.882 1933.62 824.882L1455.63 824.882C1434.88 824.882 1434.88 805.602 1434.88 797.5V722.792C1434.88 695.5 1438 690.383 1463.92 690.383L1719.52 690.383C1739.44 690.383 1744.42 643.389 1744.42 625.564C1745.25 498.087 1746.41 239.568 1744.42 225.308C1741.93 207.483 1722.84 188.037 1706.24 188.037L1414.96 188.037C1389.24 188.037 1389.24 172.81 1389.24 145.905Z" fill="#DBA0FF"/>
<path d="M1058.13 3087.06C1058.13 3077.78 1033.79 3072.5 1009.99 3072.36L1009.99 3159.98C1009.99 3193.69 1025.49 3204.27 1033.23 3205.35L1808.31 3205.35C1819.6 3205.35 1822.42 3223.72 1822.42 3232.9V3305.82H1887.15V3164.84C1887.15 3127.25 1868.77 3079.7 1868.77 3098.77L1066.81 3098.77C1063.21 3096.07 1058.13 3105.21 1058.13 3087.06Z" fill="#DBA0FF"/>
<path d="M1591 3906H1826.8C1826.64 3856.52 1826.42 3857.3 1826.8 3836.3C1827.17 3815.3 1813.56 3811.91 1804.15 3811.86C1742.92 3811.56 1644.16 3811.62 1635.84 3811.62C1624.49 3811.62 1615.8 3808.52 1615.8 3791.94V3691.5C1615.8 3674.74 1618.81 3668.05 1638.68 3668.05H1750.77C1764.67 3668.05 1770.91 3664.42 1770.91 3647.11C1771.07 3614.52 1771.13 3538.85 1770.75 3514.95C1770.37 3491.05 1764.95 3488.41 1741.96 3488.41C1649.81 3488.41 1481.14 3488.7 1473.09 3488.7C1464.14 3488.7 1463.83 3474.82 1464.14 3468.79C1463.83 3453.1 1463.39 3417.55 1464.14 3400.9C1464.9 3384.24 1465.49 3382.1 1477 3382.05C1538.07 3381.75 1651.17 3382.05 1657.69 3382.05C1669.61 3382.05 1673.73 3377.3 1673.73 3365.59C1673.57 3359.86 1673.35 3332.08 1673.73 3311.8C1673.89 3303.28 1675 3300.42 1684.56 3300.42H1954.43C1966.68 3300.42 1966.68 3294.07 1966.68 3282.31C1966.68 3268.93 1967 3227.31 1967 3208.32C1967 3196.59 1966.15 3192.7 1954.43 3192.7H1758.97C1749.08 3192.7 1748.95 3190.73 1749.08 3174.59C1749.24 3155.28 1749.72 3105.33 1749.35 3091.57C1749.16 3084.59 1749.35 3078.64 1758.97 3078.64H1882.84C1892.65 3078.64 1895.21 3073.42 1895.21 3065.04C1894.89 3033.96 1895.12 3057.53 1895.12 3038.81C1861.52 3038.51 1748.61 3038.09 1735.43 3038.81C1722.24 3039.54 1722.21 3054.15 1722.24 3061.44C1722.4 3099.46 1722.62 3180.75 1722.24 3201.75C1721.86 3222.75 1722.24 3225.29 1735.43 3225.29H1936.53C1945.72 3225.29 1945.01 3227.87 1945.01 3246.11C1945.01 3257.69 1946.28 3260.59 1932.77 3260.59C1843.12 3260.29 1684.25 3261.5 1664 3261.5C1643.75 3261.5 1638.43 3261.5 1638.43 3311.8C1638.43 3326.98 1634.14 3327.57 1623.33 3327.57C1572.78 3327.57 1482.06 3328.3 1468.5 3327.57C1447 3326.43 1434 3336.5 1434 3360.16V3514.95C1434 3547.54 1452.5 3550.25 1468 3550.25H1726.01C1737.78 3550.25 1737.78 3561.02 1737.78 3565.55V3607.28C1737.78 3622.53 1736.01 3625.39 1721.3 3625.39H1594.5C1558.5 3625.39 1562.11 3651.64 1562.11 3661.59C1561.63 3732.8 1562.5 3864.45 1562.5 3872.5C1562.5 3895 1569 3906 1591 3906Z" fill="#DBA0FF"/>
</svg>
