<svg width="655" height="2321" viewBox="0 0 655 2321" fill="none" xmlns="http://www.w3.org/2000/svg">
<path d="M215.517 67.1752C215.517 49.4546 214.53 -9.47838 215.517 -36.8271L136.207 -36.8271C136.404 26.3447 136.207 123.799 136.207 186.2C136.207 198.5 143.5 217.401 170.071 217.401C247.013 217.786 367.509 217.146 377.966 217.146C396.5 217.146 400.999 228.5 400.999 243.5C400.999 272.004 401.362 336.195 401.362 367.626C401.362 386.5 395.395 400.5 372 400.5C322.48 400.5 244.927 401.138 231.67 401.138C218.412 401.138 206.639 409.227 206.639 424.196C206.441 465.797 206.165 565.924 206.639 596.432C207.112 626.939 230.5 630.026 242.923 629.944C358.731 629.173 570.753 628.095 580.697 629.944C590.64 631.792 592.337 647.662 591.942 655.366C592.337 675.396 592.889 720.772 591.942 742.035C590.995 763.298 584.051 766.302 580.697 765.147C503.952 765.532 359.013 765.147 347.759 765.147C336 765.147 328.179 769.5 328.563 783.748C328.76 791.066 328.563 824.111 328.563 850C328.563 861 328.563 870.5 312 870.5C202.899 870.5 -14.7187 870.305 -24.1885 870.305C-33.6583 870.305 -38.3931 885.712 -39.5769 893.416C-39.1823 910.75 -38.6299 951.657 -39.5769 976.618C-40.5239 1001.58 -29.7125 1007.82 -24.1885 1007.82C54.1349 1007.43 206.513 1007.82 215.085 1007.82C234.75 1007.82 233.672 1013.5 233.5 1035C233.302 1059.65 233.864 1110 233.864 1126.84C233.864 1148.5 231.5 1154.5 215 1154.5C167.65 1154.5 76.6652 1153.42 65.7748 1153.42C55.9994 1153.42 50.2833 1160.5 50.3864 1170.87C50.781 1210.54 50.3864 1300.39 50.3864 1324.45C50.3864 1351 63.9994 1360.32 84.1226 1360.32C225.973 1360.32 494.521 1359.35 507.306 1360.27C520.09 1361.2 522.497 1376.83 522.102 1384.54V1486.23C522.102 1505 514.999 1516.34 492.871 1516.34C425.794 1515.96 318.5 1516.5 310 1516.5C297 1516.5 281.805 1526.9 281.805 1548.01L281.805 1752.01C281.805 1825.5 295.616 1794.77 302.521 1793.61C394.062 1793.23 579.513 1792.69 588.983 1793.61C598.453 1794.54 601.609 1812.49 602.004 1821.35V1909.17C602.004 1940.38 591.348 1940.38 584.978 1940.37H584.84L90.6331 1940.37C80.8494 1940.37 77.6121 1946.5 77.6121 1953.9C77.4149 1968.15 77.6121 2009.33 77.6121 2031.66C77.6121 2054 73 2057.72 56.9427 2057.72C19.0358 2057.72 -24.1885 2059.17 -38.3932 2058.24C-52.5979 2057.32 -55.36 2072.49 -54.9654 2080.2L-54.9654 2216.56C-54.9654 2240.59 -43.9172 2248.14 -38.3932 2248.91C142.52 2248.91 364.951 2247 373 2247H373.91C410.58 2247 445.5 2246.99 445.5 2306.5L570.635 2320.56V2220.02C570.635 2195.5 561 2186.51 531 2186.51L-12.9431 2186.51C-15.5078 2184.59 -20.6373 2177.5 -20.6373 2164.56C-20.6373 2151.61 -12.7457 2146.84 -8.79999 2146.07C27.1064 2146.07 99 2145.5 109.5 2145.5C120 2145.5 127.921 2138.5 127.921 2128.73L127.921 2127.57C127.925 2121.53 127.939 2102.16 127.5 2073C127.138 2049 132 2046.69 150.412 2046.69C304.889 2046.69 610.927 2048.42 627.499 2047.5C652 2046.13 654.68 2023 654.68 2012.02L654.68 1740.46C654.68 1709.95 638.499 1705.79 623.176 1705.79C536.567 1705.79 371.769 1706.95 359.931 1706.95C342.176 1706.95 342.176 1689 342.176 1681.52L342.176 1630.68C342.176 1606 342.176 1593.7 359.931 1593.7C413.002 1594.08 512.403 1593.7 529.001 1593.7C554.499 1593.7 559.39 1583.5 559.39 1555.56C559.192 1496.24 558.916 1370.9 559.39 1344.09C559.863 1317.28 546.566 1307.5 539.858 1305.96C400.375 1306.34 117.889 1305.96 103.654 1305.96C84.1226 1305.96 84.1226 1300.5 84.1226 1280.54L84.1226 1236.62C84.1226 1210.49 84.1226 1204.27 103.654 1204.27C145.876 1204.27 227.5 1203.5 246.5 1203.5C265.5 1203.5 268 1196 268 1179C268 1130.47 267.127 1023.07 267.601 996.263C268.074 969.453 250 966.218 243.516 966.218L-1.69769 966.218C-6.43262 966.218 -12.3513 958.129 -12.3513 939.639C-12.3513 924.848 -2.09235 921.15 3.03717 921.15C115.689 921.535 339.288 921.995 356.644 921.15C374 920.305 369.674 921.15 369.674 855.892C369.674 837 376.5 835.73 391.892 835.637C455.419 835.252 586.734 834.713 603.779 835.637C620.825 836.561 628.243 808.288 629.821 794.036L629.821 596.432C629.821 554.831 606.147 551.364 603.779 551.364L262.866 551.364C249.5 551.364 248.069 542.5 248.069 532.707L248.069 478.562C248.069 458 252.5 455.451 268.784 455.451L433.999 455.451C465.499 455.451 468.999 443.5 468.999 418L468.999 134.5C468.999 111 458.999 97.2203 429.499 97.2203L248.5 97.2203C227.5 97.2203 215.517 94 215.517 67.1752Z" fill="#99E7FF"/>
</svg>
