<svg width="1167" height="3049" viewBox="0 0 1167 3049" fill="none" xmlns="http://www.w3.org/2000/svg">
<path d="M441.647 156.051C441.647 128.484 438.842 41.4452 440.462 0.617187L315.031 0.617187C315.031 86 315.808 293.544 315.031 333.567C314.253 373.59 349.384 380.07 366 380.145C492.375 380.72 692.334 381.5 709.5 381.5C739.5 381.5 750.538 393.5 750.538 418.098C750.538 460.651 751 580.076 751 627C751 643.5 744 654.441 725.263 654.441C643.93 654.441 486.775 656.5 465 656.5C446.957 656.5 429.5 666.5 429.5 689C429.176 751.105 430.712 900.438 430.712 945.988C430.712 975.5 430.712 1008.3 475.43 1008.3L1042.23 1008.3C1063.56 1008.3 1063.32 1023 1063.56 1033.97C1064.21 1063.87 1063.56 1133 1063.56 1163.35C1063.56 1186.5 1065 1196.58 1042.23 1196.58C916.181 1196.58 658.872 1197.17 644.804 1197.17C639 1197.17 632 1202.13 632 1213.5C632 1224.87 631.746 1273.07 630.968 1311.71C630.19 1350.36 615.738 1356.57 608.609 1354.84L51.5876 1354.84C36.5 1354.84 26 1361.65 26 1382C26 1407.89 25.5 1487.44 25.5 1524C25.5 1546.5 27.5 1560.24 51.5876 1560.13C180.231 1559.56 440.949 1560.13 455.015 1560.13C475.43 1560.13 477 1566 477 1588C477 1624.8 474.652 1711.6 475.43 1737.82C476.207 1764.04 462.144 1775.2 455.015 1777.5H199.349C181.462 1777.5 175.046 1799.35 174.074 1810.28C174.722 1869.51 174.074 1996.9 174.074 2032.82C174.074 2067 171.5 2086.3 199.349 2086.3C432.333 2085.72 903.504 2086.3 924.547 2086.3C948.85 2086.3 948.85 2099 948.85 2122.53L948.85 2274.34C948.85 2311.6 932.648 2320.92 924.547 2320.92C814.374 2320.34 590.334 2319.54 575.557 2320.92C560.781 2322.3 555.143 2347.94 554.171 2360.59C554.171 2444 557.5 2643 557.5 2680C557.5 2717 568.5 2732 600.5 2732C750.855 2732 1030.89 2732.5 1046.5 2732.5C1083.5 2732.5 1080.09 2759.5 1080.09 2774.62V2905.73C1080.09 2952.32 1061.46 2952.32 1052.1 2952.31H1051.89C787.154 2952.31 254.003 2949.72 240.178 2952.31C224.447 2955.27 220.087 2975.31 218.791 2986.82C218.467 3008.09 218.014 3058.24 218.791 3088.6C219.569 3118.96 205.506 3127.7 198.377 3128.28C151.391 3128.85 51.5876 3129.66 28.2568 3128.28C4.92603 3126.9 0.389526 3149.55 1.0376 3161.05V3364.62C1.0376 3400.5 19.1838 3411.77 28.2568 3412.92L936.212 3412.92C949.433 3412.92 952.738 3432.47 952.738 3442.25V3519.88H1028.56L1028.56 3369.79C1028.56 3329.77 1010.42 3319.77 1001.34 3319.77L70.0577 3319.77C65.8452 3316.89 57.4203 3306.31 57.4203 3286.99C57.4203 3267.67 70.3818 3260.54 76.8625 3259.39H278.09C297.533 3259.39 301.745 3242.13 301.421 3233.51C301.745 3228.91 302.199 3207.98 301.421 3161.05C300.643 3114.13 325.724 3108.15 338.361 3111.02C592.083 3111.6 1106.33 3112.4 1133.55 3111.02C1160.77 3109.64 1166.93 3075.95 1166.6 3059.27L1166.6 2653.87C1166.6 2608.32 1121.6 2603.11 1111.53 2603.11C969.279 2603.11 701.932 2603.84 682.49 2603.84C666.5 2603.84 653.327 2590.5 653.327 2565.88V2489.98C653.327 2447.2 649.298 2424.79 659.019 2424.22C746.185 2424.79 950.794 2422.66 978.013 2421.28C1005.23 2419.9 1010.74 2396.25 1010.09 2377.84C1009.77 2289.29 1009.32 2102.17 1010.09 2062.15C1010.87 2022.12 1000.5 1986.39 955.5 1986.5C726.405 1987.08 275.478 1985.48 252.113 1985.48C229.485 1985.48 230.79 1970.24 230.79 1957.91C230.79 1950.29 230.262 1907.95 229.485 1873.45C228.707 1838.95 250.547 1855.13 261.564 1853.41C330.909 1853.98 476.402 1854.79 503.621 1853.41C530.84 1852.03 533.108 1824.08 530.84 1810.28C530.516 1737.82 530.062 1582.91 530.84 1542.88C531.618 1502.86 502 1499.24 490.807 1499.24C355.035 1499.24 95.7216 1498 89.5 1498C69 1498 71.0299 1490.5 71.0299 1458.35C71.0299 1433.5 77.5 1430.69 96.3047 1430.75C281.331 1431.32 655.604 1430.75 672.769 1430.75C695.5 1430.75 700.96 1384.17 701.932 1344.49C702.71 1312.75 724.291 1303.66 734.984 1303.09C839.325 1302.51 1054.08 1305.09 1083 1303.09C1110.96 1301.15 1125.77 1289.25 1125.77 1240.98L1125.77 945.988C1125.77 883.883 1086.89 878.708 1083 878.708C1079.11 878.708 532.784 875.257 523.063 878.708C513.342 882.158 498.76 840.755 498.76 832.129L498.76 770.024C498.76 749.323 520.147 735.522 532.784 735.522C624.811 735.522 803.828 733.797 822.492 733.797C854 733.797 863.867 705 864 686.5C864.972 550.79 861.359 256 861.359 240.41C861.359 214 843.5 200.732 816.642 200.732L475.43 200.732C441.647 200.732 441.647 182.446 441.647 156.051Z" fill="#99E7FF"/>
</svg>
