<svg width="406" height="971" viewBox="0 0 406 971" fill="none" xmlns="http://www.w3.org/2000/svg">
<path d="M232.5 4.3897e-05L-26.5909 4.3897e-05C-26.418 55.3446 -26.176 54.4672 -26.5909 77.9549C-27.0059 101.443 -12.0171 105.238 -1.65121 105.29C65.7791 105.627 174.547 105.561 183.712 105.561C196.213 105.561 205.784 109.026 205.784 127.563C205.784 152.535 205.901 216.095 205.901 243.632C205.901 262.375 202.464 266.123 180.587 266.123L57.1412 266.123C41.8277 266.123 34.9522 270.184 34.9522 289.552C34.7793 325.998 34.7187 410.63 35.1336 437.357C35.5486 464.085 41.5152 467.045 66.8375 467.045C168.331 467.045 336.552 466.5 344.5 466.5C372.804 466.5 372.804 476.5 372.804 488.99C373.149 506.538 372.804 546.273 372.804 564.92C372.804 577 370.5 585 354 585C286.742 585 166.832 585.999 159.648 585.999C146.522 585.999 141.985 591.31 141.985 604.403C142.158 610.815 142.4 641.883 141.985 664.56C141.81 674.09 140.584 677.296 130.055 677.296L-167.157 677.296C-180.643 677.296 -180.643 684.395 -180.643 697.544C-180.643 712.513 -181 759.057 -181 780.299C-181 793.419 -180.062 797.772 -167.157 797.772H48.101C58.9936 797.772 59.1381 799.979 58.9936 818.02C58.8207 839.618 58.2889 895.484 58.7039 910.873C58.9144 918.682 58.7038 925.334 48.101 925.334H-88.3156C-99.1194 925.334 -101.932 931.178 -101.932 940.549C-101.586 975.308 -101.832 948.951 -101.832 969.88C-64.8322 970.218 59.5123 970.69 74.0357 969.88C88.5591 969.07 88.5923 952.732 88.5591 944.57C88.3862 902.049 88.1442 811.136 88.5591 787.648C88.9741 764.16 88.5591 761.326 74.0357 761.326L-147.447 761.326C-157.561 761.326 -156.783 758.432 -156.783 738.04C-156.783 725.082 -158.186 721.842 -143.297 721.842C-44.5724 722.179 144.22 720.947 166.524 720.947C182 720.947 179.759 714.074 180.862 664.56C181.24 647.589 185.588 646.924 197.485 646.924C253.159 646.924 368.239 646.114 383.177 646.924C398.116 647.734 404.617 622.964 406 610.478L406 437.357C406 400.911 388.5 397.5 372.804 397.5C347.126 397.5 89.9854 397.874 84.4096 397.874C71.4423 397.874 71.4423 385.828 71.4423 380.766V334.092C71.4423 317.041 73.3923 313.844 89.5965 313.844L239 313.844C264.915 313.844 264.915 298 264.915 273.348C265.434 193.706 264.915 32.2809 264.915 23.2853C264.915 5 259 0 232.5 4.3897e-05Z" fill="#A0FFC6"/>
</svg>
