<svg width="697" height="3306" viewBox="0 0 697 3306" fill="none" xmlns="http://www.w3.org/2000/svg">
<path d="M380.238 145.905C380.238 119 378.855 38.4136 380.238 0.0625L269.038 0.0625C269.314 88.6482 269.701 275.218 269.038 312.813C268.374 350.408 292.354 356.483 308.938 356.566C416.82 357.106 590.836 357 605.5 357C625.5 357 640.812 362.547 640.812 392.216C640.812 432.188 641 533.923 641 578C641 608 635.5 614 600.5 614L403 614C378.5 614 367.5 620.5 367.5 651.5C367.223 709.837 367.126 845.3 367.79 888.081C368.454 930.861 378 935.6 418.513 935.6C580.891 935.6 878.317 932.481 892.258 935.074C906.2 937.667 908.579 959.921 908.025 970.724C908.579 998.813 909.353 1062.44 908.025 1092.26C906.698 1122.08 896.961 1126.29 892.258 1124.67C784.654 1125.21 578.493 1126 567 1126C546 1126 538.74 1134.5 538.74 1155.46C539.017 1165.72 539.404 1215.45 538.74 1251.75C538.461 1267 536.5 1272.13 519.654 1272.13L44.1472 1272.13C22.571 1272.13 22.571 1283.49 22.571 1304.54C22.571 1328.5 22 1403 22 1437C22 1458 23.5 1464.97 44.1472 1464.97L388.537 1464.97C405.964 1464.97 406.195 1468.5 405.964 1497.38C405.687 1531.95 404.836 1621.37 405.5 1646C405.837 1658.5 405.5 1669.15 388.537 1669.15L170.285 1669.15C153 1669.15 148.5 1678.5 148.5 1693.5C149.053 1749.14 148 1877 148 1910.5C148 1946.5 148 1959.21 170.285 1959.21C369.174 1959.21 771.431 1957.92 789.356 1959.21C807.281 1960.51 810.656 1982.44 810.102 1993.24L810.102 2135.84C810.102 2170.85 796.272 2179.6 789.356 2179.6C695.306 2179.06 504.052 2178.3 491.439 2179.6C478.825 2180.89 474.012 2204.98 473.182 2216.87L473.182 2508.55C473.182 2559.11 492.545 2568.51 502.227 2566.89C630.577 2566.35 890.598 2565.59 903.876 2566.89C917.154 2568.18 921.58 2593.36 922.133 2605.78L922.133 2728.94C922.133 2773.01 906.089 2776.47 898.067 2772.69C672.07 2772.69 216.941 2770.25 205.139 2772.69C191.71 2775.46 187.988 2794.29 186.882 2805.1C186.605 2825.08 188.43 2876.92 189.094 2905.44C189.758 2933.96 175.086 2963.96 169 2964.5C128.89 2965.04 39.223 2955.78 19.3065 2954.48C-0.609985 2953.19 0.441589 2957.96 0.994812 2968.76L0.994812 3159.98C0.994873 3193.69 16.4854 3204.27 24.2307 3205.35L799.314 3205.35C810.6 3205.35 813.422 3223.72 813.422 3232.9V3305.82H878.151V3164.84C878.151 3127.25 859.772 3079.7 859.772 3098.77L57.8057 3098.77C54.2097 3096.07 49.1262 3105.21 49.1263 3087.06C49.1263 3068.91 69.6516 3015.81 69.6516 3036.82C119.996 3036.82 188.542 3040.12 205.139 3040.12C221.736 3040.12 214.161 3027.8 231.94 3027.8C191.653 2981.24 192.849 3010.59 192.849 2959.76C192.849 2915.68 276.362 2921.74 288.954 2921.77C505.546 2922.31 944.539 2923.07 967.775 2921.77C991.011 2920.47 996.266 2888.82 995.99 2873.16L995.99 2492.35C995.99 2449.57 977.18 2443.19 967.775 2445.35H582.722C557.827 2445.35 557.827 2445.35 557.827 2409.7V2338.4C557.827 2286.55 557.827 2286.37 582.722 2286.55C657.133 2287.09 811.762 2287.84 834.998 2286.55C858.234 2285.25 862.937 2250.36 862.383 2233.07C862.107 2149.89 861.719 1974.12 862.383 1936.53C863.047 1898.93 844.403 1885.21 834.998 1883.05C639.429 1883.59 243.312 1884.35 223.396 1883.05C203.479 1881.75 196.84 1858.74 196.01 1847.4C196.287 1840.38 196.674 1818.23 196.01 1785.82C195.347 1753.41 213.991 1742.07 223.396 1740.45C282.592 1740.99 406.793 1741.74 430.029 1740.45C453.265 1739.15 453.318 1713 453.265 1699.94C452.989 1631.88 452.601 1486.36 453.265 1448.76C453.929 1411.17 453.265 1406.63 430.029 1406.63L75.6815 1406.63C59.5 1406.63 60.7442 1402 60.7442 1369.36C60.7442 1348.62 58.5 1343.43 82.3203 1343.43C240.269 1343.97 542.316 1342 578 1342C600.94 1342 599.175 1331 600.94 1251.75C601.544 1224.58 608.5 1223.52 627.535 1223.52C716.607 1223.52 900.723 1222.22 924.622 1223.52C948.522 1224.81 958.923 1185.17 961.136 1165.18L961.136 888.081C961.136 829.744 927.942 824.882 924.622 824.882L446.626 824.882C425.88 824.882 425.88 805.602 425.88 797.5V722.792C425.88 695.5 429 690.383 454.925 690.383L710.52 690.383C730.436 690.383 735.416 643.389 735.416 625.564C736.246 498.087 737.407 239.568 735.416 225.308C732.926 207.483 713.839 188.037 697.242 188.037L405.964 188.037C380.238 188.037 380.238 172.81 380.238 145.905Z" fill="#A0FFC6"/>
</svg>
